<mxfile host="app.diagrams.net" agent="Mozilla/5.0 (Windows NT 10.0; Win64; x64) AppleWebKit/537.36 (KHTML, like Gecko) Chrome/136.0.0.0 Safari/537.36" version="27.0.5">
  <diagram name="Page-1" id="_W8Zs4EVxXsc5mTbWpAG">
    <mxGraphModel dx="1251" dy="660" grid="1" gridSize="10" guides="1" tooltips="1" connect="1" arrows="1" fold="1" page="1" pageScale="1" pageWidth="850" pageHeight="1100" math="0" shadow="0">
      <root>
        <mxCell id="0" />
        <mxCell id="1" parent="0" />
        <mxCell id="zH5SM9dKoRYpyy49B7mD-1" value="" style="rounded=1;whiteSpace=wrap;html=1;fillColor=#dae8fc;gradientColor=#7ea6e0;strokeColor=#6c8ebf;" vertex="1" parent="1">
          <mxGeometry x="560" y="80" width="200" height="200" as="geometry" />
        </mxCell>
        <mxCell id="zH5SM9dKoRYpyy49B7mD-2" value="&lt;b&gt;AWS&lt;/b&gt;" style="text;html=1;align=center;verticalAlign=middle;resizable=0;points=[];autosize=1;strokeColor=none;fillColor=none;" vertex="1" parent="1">
          <mxGeometry x="635" y="80" width="50" height="30" as="geometry" />
        </mxCell>
        <mxCell id="zH5SM9dKoRYpyy49B7mD-6" style="edgeStyle=orthogonalEdgeStyle;rounded=0;orthogonalLoop=1;jettySize=auto;html=1;" edge="1" parent="1" source="zH5SM9dKoRYpyy49B7mD-4">
          <mxGeometry relative="1" as="geometry">
            <mxPoint x="550" y="135" as="targetPoint" />
          </mxGeometry>
        </mxCell>
        <mxCell id="zH5SM9dKoRYpyy49B7mD-4" value="" style="sketch=0;outlineConnect=0;fontColor=#232F3E;gradientColor=none;strokeColor=#ffffff;fillColor=#232F3E;dashed=0;verticalLabelPosition=middle;verticalAlign=bottom;align=center;html=1;whiteSpace=wrap;fontSize=10;fontStyle=1;spacing=3;shape=mxgraph.aws4.productIcon;prIcon=mxgraph.aws4.management_console;" vertex="1" parent="1">
          <mxGeometry x="230" y="90" width="80" height="90" as="geometry" />
        </mxCell>
        <mxCell id="zH5SM9dKoRYpyy49B7mD-7" value="&lt;b&gt;&lt;font style=&quot;color: rgb(0, 0, 255);&quot; face=&quot;Comic Sans MS&quot;&gt;AWS Console&lt;/font&gt;&lt;/b&gt;" style="text;html=1;align=center;verticalAlign=middle;resizable=0;points=[];autosize=1;strokeColor=none;fillColor=none;" vertex="1" parent="1">
          <mxGeometry x="220" y="165" width="100" height="30" as="geometry" />
        </mxCell>
        <mxCell id="zH5SM9dKoRYpyy49B7mD-9" style="edgeStyle=orthogonalEdgeStyle;rounded=0;orthogonalLoop=1;jettySize=auto;html=1;entryX=0;entryY=0.75;entryDx=0;entryDy=0;" edge="1" parent="1" source="zH5SM9dKoRYpyy49B7mD-8" target="zH5SM9dKoRYpyy49B7mD-1">
          <mxGeometry relative="1" as="geometry">
            <Array as="points">
              <mxPoint x="560" y="225" />
            </Array>
          </mxGeometry>
        </mxCell>
        <mxCell id="zH5SM9dKoRYpyy49B7mD-8" value="&lt;b&gt;Terraform&lt;/b&gt;" style="rounded=0;whiteSpace=wrap;html=1;fillColor=#f8cecc;gradientColor=#ea6b66;strokeColor=#b85450;" vertex="1" parent="1">
          <mxGeometry x="100" y="195" width="90" height="60" as="geometry" />
        </mxCell>
        <mxCell id="zH5SM9dKoRYpyy49B7mD-10" value="&lt;b&gt;Inter Results&lt;/b&gt;" style="shape=cylinder3;whiteSpace=wrap;html=1;boundedLbl=1;backgroundOutline=1;size=15;fillColor=#f8cecc;gradientColor=#ea6b66;strokeColor=#b85450;" vertex="1" parent="1">
          <mxGeometry x="610" y="465" width="120" height="170" as="geometry" />
        </mxCell>
        <mxCell id="zH5SM9dKoRYpyy49B7mD-18" style="edgeStyle=orthogonalEdgeStyle;rounded=0;orthogonalLoop=1;jettySize=auto;html=1;" edge="1" parent="1" source="zH5SM9dKoRYpyy49B7mD-11">
          <mxGeometry relative="1" as="geometry">
            <mxPoint x="470" y="500" as="targetPoint" />
          </mxGeometry>
        </mxCell>
        <mxCell id="zH5SM9dKoRYpyy49B7mD-11" value="&lt;b&gt;AP Website&lt;/b&gt;" style="rounded=0;whiteSpace=wrap;html=1;fillColor=#dae8fc;gradientColor=#7ea6e0;strokeColor=#6c8ebf;" vertex="1" parent="1">
          <mxGeometry x="170" y="470" width="120" height="60" as="geometry" />
        </mxCell>
        <mxCell id="zH5SM9dKoRYpyy49B7mD-13" value="&lt;b&gt;eenadu&lt;/b&gt;" style="ellipse;whiteSpace=wrap;html=1;fillColor=#d5e8d4;gradientColor=#97d077;strokeColor=#82b366;" vertex="1" parent="1">
          <mxGeometry x="170" y="550" width="120" height="80" as="geometry" />
        </mxCell>
        <mxCell id="zH5SM9dKoRYpyy49B7mD-14" value="&lt;b&gt;Frontend&lt;/b&gt;" style="text;html=1;align=center;verticalAlign=middle;resizable=0;points=[];autosize=1;strokeColor=none;fillColor=none;" vertex="1" parent="1">
          <mxGeometry x="190" y="648" width="80" height="30" as="geometry" />
        </mxCell>
        <mxCell id="zH5SM9dKoRYpyy49B7mD-15" value="&lt;b&gt;API&lt;/b&gt;" style="rounded=0;whiteSpace=wrap;html=1;" vertex="1" parent="1">
          <mxGeometry x="480" y="430" width="70" height="260" as="geometry" />
        </mxCell>
        <mxCell id="zH5SM9dKoRYpyy49B7mD-16" style="edgeStyle=orthogonalEdgeStyle;rounded=0;orthogonalLoop=1;jettySize=auto;html=1;entryX=-0.014;entryY=0.615;entryDx=0;entryDy=0;entryPerimeter=0;" edge="1" parent="1" source="zH5SM9dKoRYpyy49B7mD-13" target="zH5SM9dKoRYpyy49B7mD-15">
          <mxGeometry relative="1" as="geometry" />
        </mxCell>
        <mxCell id="zH5SM9dKoRYpyy49B7mD-19" style="edgeStyle=orthogonalEdgeStyle;rounded=0;orthogonalLoop=1;jettySize=auto;html=1;entryX=0.014;entryY=0.566;entryDx=0;entryDy=0;entryPerimeter=0;" edge="1" parent="1" source="zH5SM9dKoRYpyy49B7mD-15" target="zH5SM9dKoRYpyy49B7mD-10">
          <mxGeometry relative="1" as="geometry" />
        </mxCell>
        <mxCell id="zH5SM9dKoRYpyy49B7mD-20" value="&lt;b&gt;AWS API&lt;/b&gt;" style="rounded=0;whiteSpace=wrap;html=1;" vertex="1" parent="1">
          <mxGeometry x="430" y="10" width="80" height="350" as="geometry" />
        </mxCell>
        <mxCell id="zH5SM9dKoRYpyy49B7mD-21" value="" style="sketch=0;outlineConnect=0;fontColor=#232F3E;gradientColor=none;fillColor=#ED7100;strokeColor=none;dashed=0;verticalLabelPosition=bottom;verticalAlign=top;align=center;html=1;fontSize=12;fontStyle=0;aspect=fixed;pointerEvents=1;shape=mxgraph.aws4.ecs_copilot_cli;" vertex="1" parent="1">
          <mxGeometry x="262" y="236" width="58.91" height="54" as="geometry" />
        </mxCell>
        <mxCell id="zH5SM9dKoRYpyy49B7mD-22" style="edgeStyle=orthogonalEdgeStyle;rounded=0;orthogonalLoop=1;jettySize=auto;html=1;entryX=0.033;entryY=0.727;entryDx=0;entryDy=0;entryPerimeter=0;" edge="1" parent="1" source="zH5SM9dKoRYpyy49B7mD-21" target="zH5SM9dKoRYpyy49B7mD-20">
          <mxGeometry relative="1" as="geometry" />
        </mxCell>
        <mxCell id="zH5SM9dKoRYpyy49B7mD-23" value="&lt;b&gt;Java/NodeJs/Python&lt;/b&gt;&lt;div&gt;&lt;b&gt;/Go&lt;/b&gt;&lt;/div&gt;" style="rounded=1;whiteSpace=wrap;html=1;" vertex="1" parent="1">
          <mxGeometry x="150" y="320" width="120" height="60" as="geometry" />
        </mxCell>
        <mxCell id="zH5SM9dKoRYpyy49B7mD-24" style="edgeStyle=orthogonalEdgeStyle;rounded=0;orthogonalLoop=1;jettySize=auto;html=1;entryX=-0.001;entryY=0.859;entryDx=0;entryDy=0;entryPerimeter=0;" edge="1" parent="1" source="zH5SM9dKoRYpyy49B7mD-23" target="zH5SM9dKoRYpyy49B7mD-20">
          <mxGeometry relative="1" as="geometry" />
        </mxCell>
        <mxCell id="zH5SM9dKoRYpyy49B7mD-25" value="&lt;b&gt;CLI&lt;/b&gt;" style="text;html=1;align=center;verticalAlign=middle;resizable=0;points=[];autosize=1;strokeColor=none;fillColor=none;" vertex="1" parent="1">
          <mxGeometry x="271.45" y="290" width="40" height="30" as="geometry" />
        </mxCell>
      </root>
    </mxGraphModel>
  </diagram>
</mxfile>
